<?xml version="1.0" encoding="UTF-8"?>
<svg width="191pt" height="92pt" version="1.1" viewBox="0 0 191 92" xmlns="http://www.w3.org/2000/svg"><defs><marker id="e" overflow="visible" markerHeight="10.637" markerWidth="17.636999" orient="auto" preserveAspectRatio="none" viewBox="0 0 7.6367532 7.6367533"><path transform="scale(.45)" d="m0-7.0711-7.0711 7.0711 7.0711 7.0711 7.071-7.0711z" fill="context-fill" fill-rule="evenodd" stroke="context-stroke" stroke-width="2"/></marker><marker id="h" overflow="visible" markerHeight="6.7330775" markerWidth="5.8241119" orient="auto-start-reverse" preserveAspectRatio="xMidYMid" viewBox="0 0 5.8241121 6.7330776"><path transform="scale(.5)" d="m5.77 0-8.65 5v-10z" fill="context-fill" fill-rule="evenodd" stroke="context-stroke" stroke-width="2"/></marker><marker id="d" overflow="visible" markerHeight="6.7071066" markerWidth="4.0606599" orient="auto-start-reverse" preserveAspectRatio="xMidYMid" viewBox="0 0 4.0606602 6.7071068"><path transform="rotate(180 .125 0)" d="m3-3-3 3 3 3" fill="none" stroke="context-stroke"/></marker><marker id="a" overflow="visible" markerHeight="6.7330775" markerWidth="5.8241119" orient="auto-start-reverse" preserveAspectRatio="xMidYMid" viewBox="0 0 5.8241121 6.7330776"><path transform="scale(.5)" d="m5.77 0-8.65 5v-10z" fill="context-fill" fill-rule="evenodd" stroke="context-stroke" stroke-width="2"/></marker><marker id="b" overflow="visible" markerHeight="10.637" markerWidth="17.636999" orient="auto" preserveAspectRatio="none" viewBox="0 0 7.6367532 7.6367533"><path transform="scale(.45)" d="m0-7.0711-7.0711 7.0711 7.0711 7.0711 7.071-7.0711z" fill="context-fill" fill-rule="evenodd" stroke="context-stroke" stroke-width="2"/></marker><marker id="c" overflow="visible" markerHeight="10.637" markerWidth="17.636999" orient="auto" preserveAspectRatio="none" viewBox="0 0 7.6367532 7.6367533"><path transform="scale(.45)" d="m0-7.0711-7.0711 7.0711 7.0711 7.0711 7.071-7.0711z" fill="context-fill" fill-rule="evenodd" stroke="context-stroke" stroke-width="2"/></marker></defs><g transform="translate(93.325 7.7882)" stroke-width=".35278"><path d="m61.488 6.321h-6.465v30.206h-6.4649" fill="none" marker-start="url(#d)" stroke="#b5161e" stroke-dasharray="1.41112, 1.41112" stroke-linecap="round" stroke-linejoin="round"/><text x="63.21207" y="55.834267" font-family="'DejaVu Sans'" font-size="4.2333px"><tspan x="63.21207" y="55.834267" font-family="'DejaVu Sans'" stroke-width=".35278"/></text><text x="120.10387" y="-1.9049226" font-family="'DejaVu Sans'" font-size="2.4694px"><tspan x="120.10387" y="-1.9049226" font-family="'DejaVu Sans'" font-size="2.4694px" stroke-width=".35278"/></text><g transform="translate(-55.395 -10.121)"><path d="m56.923 21.364h16.572v-17.757h-33.129v17.757z" fill="#ee7105" stroke="#b5161e" stroke-linejoin="round" stroke-miterlimit="10"/><text x="42.818352" y="7.4373531" font-family="'DejaVu Sans'" font-size="2.707px"><tspan x="42.818352" y="7.4373531" font-family="'DejaVu Sans'" font-style="oblique" stroke-width=".35278">Shape</tspan></text><text x="40.925873" y="15.56741" font-family="'DejaVu Sans'" font-size="2.707px"><tspan x="40.925873" y="15.56741"><tspan x="40.925873" y="15.56741" font-family="'DejaVu Sans'" stroke-width=".35278">+area(): int | float</tspan></tspan><tspan x="40.925873" y="18.95116">+perimeter(): int | float</tspan></text><path d="m73.492 9.7744h-33.124" fill="none" stroke="#b5161e" stroke-linecap="round" stroke-linejoin="round"/><path d="m73.492 11.725h-33.124" fill="none" stroke="#b5161e" stroke-linecap="round" stroke-linejoin="round"/></g><g transform="translate(9.6838 -5.6508)"><path d="m49.55 85.351h18.33v-26.082h-36.642v26.082z" fill="#ee7105" stroke="#b5161e" stroke-linejoin="round" stroke-miterlimit="10"/><text x="33.68959" y="63.099819" font-family="'DejaVu Sans'" font-size="2.707px"><tspan x="33.68959" y="63.099819" font-family="'DejaVu Sans'" stroke-width=".35278">Rectangle</tspan></text><text x="32.665176" y="68.621445" font-family="'DejaVu Sans'" font-size="2.707px"><tspan x="32.665176" y="68.621445">+p1: Point</tspan><tspan x="32.665176" y="72.005196">+p2: Point</tspan></text><path d="m67.877 65.437h-36.637" fill="none" stroke="#b5161e" stroke-linecap="round" stroke-linejoin="round"/><path d="m67.877 73.696h-36.637" fill="none" stroke="#b5161e" stroke-linecap="round" stroke-linejoin="round"/><text x="32.665176" y="76.89257" font-family="'DejaVu Sans'" font-size="2.707px"><tspan x="32.665176" y="76.89257"><tspan x="32.665176" y="76.89257" font-family="'DejaVu Sans'" stroke-width=".35278">+area(): int | float</tspan></tspan><tspan x="32.665176" y="80.276321">+perimeter(): int | float</tspan><tspan x="32.665176" y="83.660072">+points(): Iterable[Point]</tspan></text></g><g transform="translate(148.42 -53.067)"><path d="m-69.286 82.449h17.268v-26.082h-34.521v26.082z" fill="#ee7105" stroke="#b5161e" stroke-linejoin="round" stroke-miterlimit="10"/><text x="-84.086731" y="60.198269" font-family="'DejaVu Sans'" font-size="2.707px"><tspan x="-84.086731" y="60.198269" font-family="'DejaVu Sans'" stroke-width=".35278">KahanSum</tspan></text><text x="-84.956497" y="65.691147" font-family="'DejaVu Sans'" font-size="2.707px"><tspan x="-84.956497" y="65.691147">-__sum: float | int</tspan><tspan x="-84.956497" y="69.074898">-__cs: float | int</tspan><tspan x="-84.956497" y="72.458649">-__ccs: float | int</tspan></text><path d="m-52.02 62.535h-34.516" fill="none" stroke="#b5161e" stroke-linecap="round" stroke-linejoin="round"/><path d="m-52.02 74.184h-34.516" fill="none" stroke="#b5161e" stroke-linecap="round" stroke-linejoin="round"/><text x="-85.111145" y="77.34008" font-family="'DejaVu Sans'" font-size="2.707px"><tspan x="-85.111145" y="77.34008"><tspan x="-85.111145" y="77.34008" font-family="'DejaVu Sans'" stroke-width=".35278">+add(int | float): {self}</tspan></tspan><tspan x="-85.111145" y="80.723831">+result(): int | float</tspan></text></g><g transform="translate(-44.989 -4.7941)"><path d="m17.817 49.56h16.572v-22.973h-33.129v22.973z" fill="#ee7105" stroke="#b5161e" stroke-linejoin="round" stroke-miterlimit="10"/><text x="3.7121501" y="30.417414" font-family="'DejaVu Sans'" font-size="2.707px"><tspan x="3.7121501" y="30.417414" font-family="'DejaVu Sans'" stroke-width=".35278">Circle</tspan></text><text x="1.8196702" y="35.970177" font-family="'DejaVu Sans'" font-size="2.707px"><tspan x="1.8196702" y="35.970177">+center: Point</tspan><tspan x="1.8196702" y="39.353928">+radius: int | float</tspan></text><path d="m34.386 32.754h-33.124" fill="none" stroke="#b5161e" stroke-linecap="round" stroke-linejoin="round"/><path d="m34.386 41.151h-33.124" fill="none" stroke="#b5161e" stroke-linecap="round" stroke-linejoin="round"/><text x="1.8196702" y="44.378914" font-family="'DejaVu Sans'" font-size="2.707px"><tspan x="1.8196702" y="44.378914"><tspan x="1.8196702" y="44.378914" font-family="'DejaVu Sans'" stroke-width=".35278">+area(): int | float</tspan></tspan><tspan x="1.8196702" y="47.762665">+perimeter(): int | float</tspan></text></g><g transform="translate(-43.28 -9.1689)"><path d="m73.508 52.237h18.33v-21.276h-36.642v21.276z" fill="#ee7105" stroke="#b5161e" stroke-linejoin="round" stroke-miterlimit="10"/><text x="57.647373" y="34.792229" font-family="'DejaVu Sans'" font-size="2.707px"><tspan x="57.647373" y="34.792229" font-family="'DejaVu Sans'" font-style="oblique" stroke-width=".35278">Polygon</tspan></text><path d="m91.835 37.129h-36.637" fill="none" stroke="#b5161e" stroke-linecap="round" stroke-linejoin="round"/><path d="m91.835 39.154h-36.637" fill="none" stroke="#b5161e" stroke-linecap="round" stroke-linejoin="round"/><text x="56.622959" y="43.058651" font-family="'DejaVu Sans'" font-size="2.707px"><tspan x="56.622959" y="43.058651"><tspan x="56.622959" y="43.058651" font-family="'DejaVu Sans'" stroke-width=".35278">+points(): Iterable[Point]</tspan></tspan><tspan x="56.622959" y="46.442402">+perimeter(): int | float</tspan><tspan x="56.622959" y="49.826153">+print()</tspan></text></g><path d="m30.236 48.343v-3.7283" fill="#fff" marker-end="url(#h)" stroke="#b5161e" stroke-linecap="round" stroke-linejoin="round"/><path d="m59.066 53.618v-5.275h-57.66v5.275" fill="none" stroke="#b5161e" stroke-linecap="round" stroke-linejoin="round"/><path d="m-4.5303e-8 16.518v-3.7283" fill="#fff" marker-end="url(#a)" stroke="#b5161e" stroke-linecap="round" stroke-linejoin="round"/><path d="m30.06 21.793v-5.275h-57.049v5.275" fill="none" stroke="#b5161e" stroke-linecap="round" stroke-linejoin="round"/><path d="m37.637 62.177h-7.4003v20.648l-58.515 0.11262-0.10075-16.278h-55.636v-8.3055" fill="#fff" marker-start="url(#b)" stroke="#b5161e" stroke-linecap="round" stroke-linejoin="round"/><path d="m-46.927 30.453h-29v8.2328" fill="#fff" marker-start="url(#e)" stroke="#b5161e" stroke-linecap="round" stroke-linejoin="round"/><path d="m-20.376 62.177h-46.575v-3.8233" fill="#fff" marker-start="url(#c)" stroke="#b5161e" stroke-linecap="round" stroke-linejoin="round"/><g transform="translate(-.76573 -1.6975)"><path d="m1.9876 81.398h18.33v-26.082h-36.642v26.082z" fill="#ee7105" stroke="#b5161e" stroke-linejoin="round" stroke-miterlimit="10"/><text x="-13.873198" y="59.146591" font-family="'DejaVu Sans'" font-size="2.707px"><tspan x="-13.873198" y="59.146591" font-family="'DejaVu Sans'" stroke-width=".35278">Triangle</tspan></text><text x="-14.897612" y="64.668221" font-family="'DejaVu Sans'" font-size="2.707px"><tspan x="-14.897612" y="64.668221">+p1: Point</tspan><tspan x="-14.897612" y="68.051971">+p2: Point</tspan><tspan x="-14.897612" y="71.435722">+p3: Point</tspan></text><path d="m20.315 61.484h-36.637" fill="none" stroke="#b5161e" stroke-linecap="round" stroke-linejoin="round"/><path d="m20.315 73.127h-36.637" fill="none" stroke="#b5161e" stroke-linecap="round" stroke-linejoin="round"/><text x="-14.897612" y="76.323097" font-family="'DejaVu Sans'" font-size="2.707px"><tspan x="-14.897612" y="76.323097"><tspan x="-14.897612" y="76.323097" font-family="'DejaVu Sans'" stroke-width=".35278">+area(): int | float</tspan></tspan><tspan x="-14.897612" y="79.706848">+points(): Iterable[Point]</tspan></text></g><g transform="translate(-93.933 40.645)"><path d="m18.443 17.709h16.572v-19.668h-33.129v19.668z" fill="#ee7105" stroke="#b5161e" stroke-linejoin="round" stroke-miterlimit="10"/><text x="4.338233" y="1.8716426" font-family="'DejaVu Sans'" font-size="2.707px"><tspan x="4.338233" y="1.8716426" font-family="'DejaVu Sans'" stroke-width=".35278">Point</tspan></text><text x="3.1264696" y="16.103054" font-family="'DejaVu Sans'" font-size="2.707px"><tspan x="3.1264696" y="16.103054">+distance(Point): float</tspan></text><text x="2.838233" y="7.5262675" font-family="'DejaVu Sans'" font-size="2.707px"><tspan x="2.838233" y="7.5262675">+x: int | float</tspan><tspan x="2.838233" y="10.910018">+y: int | float</tspan></text><path d="m35.012 4.2087h-33.124" fill="none" stroke="#b5161e" stroke-linecap="round" stroke-linejoin="round"/><path d="m35.012 12.797h-33.124" fill="none" stroke="#b5161e" stroke-linecap="round" stroke-linejoin="round"/></g></g></svg>
