<?xml version="1.0" encoding="UTF-8"?>
<svg width="524.93pt" height="289.14pt" version="1.1" viewBox="0 0 524.93 289.14" xmlns="http://www.w3.org/2000/svg"><defs><marker id="g" overflow="visible" markerHeight="5" markerWidth="5" orient="auto-start-reverse" preserveAspectRatio="none" viewBox="0 0 4.0606602 6.7071068"><path transform="rotate(180 .125 0)" d="m3-3-3 3 3 3" fill="none" stroke="context-stroke"/></marker><marker id="a" overflow="visible" markerHeight="2.714" markerWidth="4.7494998" orient="auto-start-reverse" preserveAspectRatio="xMidYMid" viewBox="0 0 8.75 5"><path d="m0 0-2.5 2.5 8.75-2.5-8.75-2.5z" fill="context-stroke" fill-rule="evenodd"/></marker><marker id="b" overflow="visible" markerHeight="5" markerWidth="5" orient="auto-start-reverse" preserveAspectRatio="none" viewBox="0 0 4.0606602 6.7071068"><path transform="rotate(180 .125 0)" d="m3-3-3 3 3 3" fill="none" stroke="context-stroke"/></marker><marker id="f" overflow="visible" markerHeight="5" markerWidth="5" orient="auto-start-reverse" preserveAspectRatio="none" viewBox="0 0 4.0606602 6.7071068"><path transform="rotate(180 .125 0)" d="m3-3-3 3 3 3" fill="none" stroke="context-stroke"/></marker><marker id="d" overflow="visible" markerHeight="5" markerWidth="5" orient="auto-start-reverse" preserveAspectRatio="none" viewBox="0 0 4.0606602 6.7071068"><path transform="rotate(180 .125 0)" d="m3-3-3 3 3 3" fill="none" stroke="context-stroke"/></marker><marker id="e" overflow="visible" markerHeight="5" markerWidth="5" orient="auto-start-reverse" preserveAspectRatio="none" viewBox="0 0 4.0606602 6.7071068"><path transform="rotate(180 .125 0)" d="m3-3-3 3 3 3" fill="none" stroke="context-stroke"/></marker><marker id="c" overflow="visible" markerHeight="5" markerWidth="5" orient="auto-start-reverse" preserveAspectRatio="none" viewBox="0 0 4.0606602 6.7071068"><path transform="rotate(180 .125 0)" d="m3-3-3 3 3 3" fill="none" stroke="context-stroke"/></marker></defs><g transform="translate(.00099241 -.0058658)"><rect x="392.32" y="15.665" width="120.41" height="12.21" fill="#64ff64"/><rect x="392.32" y="28.315" width="120.41" height="12.21" fill="#6464ff"/><rect x="392.32" y="40.965" width="120.41" height="12.21" fill="#f0f"/><rect x="392.32" y="53.616" width="120.41" height="12.21" fill="#ff0"/><rect x="392.32" y="66.266" width="120.41" height="12.21" fill="#0ff"/><rect x="392.32" y="78.916" width="120.41" height="12.21" fill="#969632"/><text x="327.621" y="284.35382" fill="#00c800" font-family="'Nimbus Sans'" font-size="16px" style="line-height:1.25" xml:space="preserve"><tspan x="327.621" y="284.35382" fill="#00c800">b</tspan></text><text x="181.201" y="284.35382" fill="#0000c8" font-family="'Nimbus Sans'" font-size="16px" style="line-height:1.25" xml:space="preserve"><tspan x="181.201" y="284.35382" fill="#0000c8">a</tspan></text><text x="201.6151" y="288.14999" fill="#0000c8" font-family="'Nimbus Sans'" font-size="16px" style="line-height:1.25" xml:space="preserve"><tspan x="201.6151" y="288.14999" fill="#000000">h</tspan></text><text x="222.78543" y="288.14999" fill="#0000c8" font-family="'Nimbus Sans'" font-size="16px" style="line-height:1.25" xml:space="preserve"><tspan x="222.78543" y="288.14999" fill="#000000">h</tspan></text><text x="243.95576" y="288.14999" fill="#0000c8" font-family="'Nimbus Sans'" font-size="16px" style="line-height:1.25" xml:space="preserve"><tspan x="243.95576" y="288.14999" fill="#000000">h</tspan></text><text x="265.12613" y="288.14999" fill="#0000c8" font-family="'Nimbus Sans'" font-size="16px" style="line-height:1.25" xml:space="preserve"><tspan x="265.12613" y="288.14999" fill="#000000">h</tspan></text><text x="286.29645" y="288.14999" fill="#0000c8" font-family="'Nimbus Sans'" font-size="16px" style="line-height:1.25" xml:space="preserve"><tspan x="286.29645" y="288.14999" fill="#000000">h</tspan></text><text x="307.4668" y="288.14999" fill="#0000c8" font-family="'Nimbus Sans'" font-size="16px" style="line-height:1.25" xml:space="preserve"><tspan x="307.4668" y="288.14999" fill="#000000">h</tspan></text><line x1="216.22" x2="216.22" y1="22.711" y2="266.67" fill="none" stroke="#000"/><line x1="237.62" x2="237.62" y1="6.8587" y2="266.67" fill="none" stroke="#000"/><line x1="259.03" x2="259.03" y1="3.0285" y2="266.68" fill="none" stroke="#000"/><line x1="301.83" x2="301.83" y1="266.68" y2="22.71" fill="#782121" stroke="#000"/><line x1="280.43" x2="280.43" y1="266.68" y2="6.8583" fill="#782121" stroke="#000"/><path d="m194.82 266.67v-214.88l21.403-29.079v243.96h-21.403" fill="#64ff64"/><path d="m216.22 266.67v-243.96l21.403-15.852v259.81h-21.403" fill="#6464ff"/><path d="m237.62 266.67v-259.81l21.403-3.8302v263.65l-21.403-5e-3" fill="#f0f"/><path d="m259.03 266.68v-263.65l21.403 3.8298v259.82z" fill="#ff0"/><path d="m280.43 266.68v-259.82l21.403 15.852v243.97h-21.403" fill="#0ff"/><path d="m301.83 266.68v-243.97l21.403 29.08v214.88z" fill="#969632"/><line x1="323.24" x2="323.24" y1="51.409" y2="275.73" fill="none" stroke="#00c800" stroke-width="2"/><line x1="194.82" x2="194.82" y1="51.409" y2="275.73" fill="none" stroke="#0000c8" stroke-width="2"/><polyline transform="matrix(.8918 0 0 .89053 -126.23 -92.653)" points="720 403.5 648 403.5 576 403.5 504 403.5 432 403.5 360.17 403.5 288 403.5 216.16 403.5 144 403.5" fill="none" marker-start="url(#a)" stroke="#000" stroke-linecap="round" stroke-linejoin="round" stroke-width="2.6667"/><path d="m515.87 258.66c-24.953 0-46.026-6.1981-64.183-16.671-26.434-15.229-46.695-39.513-63.746-66.896-24.97-40.083-43.083-86.809-63.666-121.57-17.863-30.171-37.581-51.33-65.244-51.33-27.735 0-47.48 21.266-65.378 51.553-20.547 34.775-38.651 81.439-63.595 121.46-17.194 27.588-37.643 52.016-64.388 67.19-17.997 10.232-38.847 16.27-63.479 16.27" fill="none" stroke="#f00" stroke-linecap="round" stroke-linejoin="round" stroke-width="2.3765"/><text x="201.05867" y="84.646858" fill="#ffffff" font-family="'Nimbus Sans'" font-size="20px" font-weight="bold" stroke="#000000" stroke-linecap="round" stroke-linejoin="round" style="line-height:1.25" xml:space="preserve"><tspan x="201.05867" y="84.646858" fill="#ffffff" font-family="'Nimbus Sans'" font-size="20px" font-weight="bold" stroke="#000000" stroke-linecap="round" stroke-linejoin="round">1</tspan></text><text x="221.472" y="84.646858" fill="#ffffff" font-family="'Nimbus Sans'" font-size="20px" font-weight="bold" stroke="#000000" stroke-linecap="round" stroke-linejoin="round" style="line-height:1.25" xml:space="preserve"><tspan x="221.472" y="84.646858" fill="#ffffff" font-family="'Nimbus Sans'" font-size="20px" font-weight="bold" stroke="#000000" stroke-linecap="round" stroke-linejoin="round">2</tspan></text><text x="242.87534" y="84.370857" fill="#ffffff" font-family="'Nimbus Sans'" font-size="20px" font-weight="bold" stroke="#000000" stroke-linecap="round" stroke-linejoin="round" style="line-height:1.25" xml:space="preserve"><tspan x="242.87534" y="84.370857" fill="#ffffff" font-family="'Nimbus Sans'" font-size="20px" font-weight="bold" stroke="#000000" stroke-linecap="round" stroke-linejoin="round">3</tspan></text><text x="264.26868" y="84.646858" fill="#ffffff" font-family="'Nimbus Sans'" font-size="20px" font-weight="bold" stroke="#000000" stroke-linecap="round" stroke-linejoin="round" style="line-height:1.25" xml:space="preserve"><tspan x="264.26868" y="84.646858" fill="#ffffff" font-family="'Nimbus Sans'" font-size="20px" font-weight="bold" stroke="#000000" stroke-linecap="round" stroke-linejoin="round">4</tspan></text><text x="285.69202" y="84.370857" fill="#ffffff" font-family="'Nimbus Sans'" font-size="20px" font-weight="bold" stroke="#000000" stroke-linecap="round" stroke-linejoin="round" style="line-height:1.25" xml:space="preserve"><tspan x="285.69202" y="84.370857" fill="#ffffff" font-family="'Nimbus Sans'" font-size="20px" font-weight="bold" stroke="#000000" stroke-linecap="round" stroke-linejoin="round">5</tspan></text><text x="307.02533" y="84.370857" fill="#ffffff" font-family="'Nimbus Sans'" font-size="20px" font-weight="bold" stroke="#000000" stroke-linecap="round" stroke-linejoin="round" style="line-height:1.25" xml:space="preserve"><tspan x="307.02533" y="84.370857" fill="#ffffff" font-family="'Nimbus Sans'" font-size="20px" font-weight="bold" stroke="#000000" stroke-linecap="round" stroke-linejoin="round">6</tspan></text><path d="m216.64 266.67v9.0529" fill="none" stroke="#000" stroke-width=".75px"/><path d="m237.83 266.67v9.0529" fill="none" stroke="#000" stroke-width=".75px"/><path d="m259.03 266.68v9.0529" fill="none" stroke="#000" stroke-width=".75px"/><path d="m280.22 266.68v9.0529" fill="none" stroke="#000" stroke-width=".75px"/><path d="m301.42 266.68v9.0529" fill="none" stroke="#000" stroke-width=".75px"/><path d="m215.5 272.7h-18.877" fill="none" marker-end="url(#g)" marker-start="url(#g)" stroke="#000" stroke-width=".75px"/><path d="m236.67 272.7h-18.877" fill="none" marker-end="url(#b)" marker-start="url(#b)" stroke="#000" stroke-width=".75px"/><path d="m257.84 272.7h-18.877" fill="none" marker-end="url(#f)" marker-start="url(#f)" stroke="#000" stroke-width=".75px"/><path d="m279.01 272.7h-18.877" fill="none" marker-end="url(#d)" marker-start="url(#d)" stroke="#000" stroke-width=".75px"/><path d="m300.18 272.7h-18.877" fill="none" marker-end="url(#e)" marker-start="url(#e)" stroke="#000" stroke-width=".75px"/><path d="m321.35 272.7h-18.877" fill="none" marker-end="url(#c)" marker-start="url(#c)" stroke="#000" stroke-width=".75px"/><text x="15.74527" y="60.865002" font-family="'Nimbus Sans'" font-size="12px" stroke-width=".75" style="line-height:1.25" xml:space="preserve"><tspan x="15.74527" y="60.865002">n = 6</tspan><tspan x="15.74527" y="75.865005">h = (b - a) / n = (b - a) / 6</tspan></text><path d="m123.81 184.85-45.4-17.212" fill="none" stroke="#fd0000" stroke-width=".75px"/><text x="59.164616" y="166.68939" fill="#ff0000" font-family="'Nimbus Sans'" font-size="12px" stroke-width=".75" style="line-height:1.25" xml:space="preserve"><tspan x="59.164616" y="166.68939" fill="#ff0000" stroke-width=".75">f(x)</tspan></text><g transform="translate(-24.399 -7.5174)" font-family="'Nimbus Sans'" stroke-width=".75"><text x="360.6907" y="31.840055" font-size="10px" style="line-height:1.25" xml:space="preserve"><tspan x="360.6907" y="31.840055"><tspan font-size="14px"><tspan font-family="'Linux Biolinum'" font-style="italic">∫</tspan> </tspan> <tspan fill="#ff0000">f(x)</tspan> dx ≈    h (f(a) + f(a + h)) / 2</tspan><tspan x="360.6907" y="45.924057">                  + h (f(a + h) + f(a + 2h)) / 2</tspan><tspan x="360.6907" y="58.424057">                  + h (f(a + 2h) + f(a + 3h)) / 2</tspan><tspan x="360.6907" y="70.924057">                  + h (f(a + 3h) + f(a + 4h)) / 2</tspan><tspan x="360.6907" y="83.424057">                  + h (f(a + 4h) + f(a + 5h)) / 2</tspan><tspan x="360.6907" y="95.924057">                  + h (f(a + 5h) + f(b)) / 2</tspan><tspan x="360.6907" y="108.42406"/><tspan x="360.6907" y="120.92406">               ≈ h [    f(a)/2 + f(b)/2 + f(a + h)</tspan><tspan x="360.6907" y="133.42406">                       + f(a + 2h) + f(a + 3h)</tspan><tspan x="360.6907" y="145.92406">                       + f(a + 4h) + f(a + 5h) ]</tspan></text><text x="363.68188" y="36.423786" font-size="6px" style="line-height:1.25" xml:space="preserve"><tspan x="363.68188" y="36.423786" fill="#0000c8" font-size="6px" stroke-width=".75">a</tspan></text><text x="368.68707" y="24.182665" font-size="6px" style="line-height:1.25" xml:space="preserve"><tspan x="368.68707" y="24.182665" fill="#00c800" font-size="6px" stroke-width=".75">b</tspan></text></g><path d="m194.82 51.79-23.154-19.745" fill="none" stroke="#0000c8" stroke-width=".75px"/><text x="152.4222" y="31.494762" font-family="'Nimbus Sans'" font-size="12px" stroke-width=".75" style="line-height:1.25" xml:space="preserve"><tspan x="152.4222" y="31.494762" fill="#ff0000" stroke-width=".75">f(<tspan fill="#0000ff">a</tspan>)</tspan></text><ellipse cx="195.06" cy="51.409" rx="3.9062" ry="3.8897" fill="#0000c8"/></g></svg>
