<?xml version="1.0" encoding="UTF-8"?>
<svg width="477pt" height="140pt" viewBox="0 0 477 140" xmlns="http://www.w3.org/2000/svg"><linearGradient id="a" x1="150.96" x2="112.03" y1="192.35" y2="137.27" gradientTransform="matrix(.56254 0 0 .56797 -9.3997 -5.3053)" gradientUnits="userSpaceOnUse"><stop stop-color="#ffd43b" offset="0"/><stop stop-color="#ffe873" offset="1"/></linearGradient><linearGradient id="b" x1="26.649" x2="135.67" y1="20.604" y2="114.4" gradientTransform="matrix(.56254 0 0 .56797 -9.3997 -5.3053)" gradientUnits="userSpaceOnUse"><stop stop-color="#5a9fd4" offset="0"/><stop stop-color="#306998" offset="1"/></linearGradient><radialGradient id="c" cx="61.519" cy="132.29" r="29.037" gradientTransform="matrix(2e-8 -.23995 1.0547 3.8e-7 -78.109 148.86)" gradientUnits="userSpaceOnUse"><stop stop-color="#b8b8b8" stop-opacity=".49804" offset="0"/><stop stop-color="#7f7f7f" stop-opacity="0" offset="1"/></radialGradient><g fill="#646464"><path d="m180.12 59.766c0-14.562-4.1523-22.038-12.457-22.448-3.3043-.15595-6.5306.37039-9.6691 1.5888-2.505.89673-4.1912 1.7837-5.0782 2.6804v34.758c5.3122 3.3335 10.03 4.8833 14.143 4.6396 8.7042-.57508 13.061-7.6417 13.061-21.219zm10.244.60432c0 7.398-1.735 13.539-5.2244 18.422-3.8891 5.5266-9.2792 8.3728-16.17 8.5287-5.1952.1657-10.546-1.4621-16.053-4.8736v31.59l-8.9088-3.1776v-70.121c1.4621-1.7935 3.3432-3.3335 5.6241-4.6396 5.3024-3.0898 11.745-4.6786 19.328-4.7566l.12671.12671c6.9302-.08773 12.272 2.7584 16.024 8.5287 3.4992 5.2927 5.2537 12.077 5.2537 20.371z"/><path d="m244.81 81.102c0 9.9225-.9942 16.794-2.9826 20.615-1.9982 3.8209-5.7995 6.8717-11.414 9.1428-4.5519 1.7935-9.4742 2.7682-14.757 2.9339l-1.4718-5.6143c5.3706-.73103 9.1525-1.4621 11.346-2.1931 4.318-1.4621 7.2811-3.7039 8.9088-6.706 1.3061-2.4465 1.9494-7.1154 1.9494-14.026v-2.3198c-6.0919 2.7682-12.476 4.1425-19.153 4.1425-4.3862 0-8.2558-1.3743-11.589-4.1425-3.7429-3.0119-5.6143-6.8327-5.6143-11.463v-37.078l8.9088-3.0508v37.322c0 3.9866 1.2866 7.0569 3.8598 9.211s5.9067 3.1873 9.9908 3.1093c4.084-.08773 8.4605-1.6668 13.11-4.7566v-43.54h8.9088z"/><path d="m279.59 86.834c-1.0624.08772-2.0371.12671-2.9339.12671-5.0392 0-8.9673-1.1989-11.774-3.6064-2.7974-2.4075-4.201-5.7313-4.201-9.9713v-35.09h-6.1017v-5.6046h6.1017v-14.884l8.8991-3.1678v18.052h10.01v5.6046h-10.01v34.846c0 3.3432.89673 5.7118 2.6902 7.0959 1.54 1.1404 3.9866 1.7935 7.3201 1.9592z"/><path d="m333.53 86.103h-8.9088v-34.388c0-3.4992-.81876-6.5111-2.4465-9.0258-1.8812-2.8462-4.4934-4.2692-7.8464-4.2692-4.084 0-9.1915 2.1541-15.322 6.4623v41.22h-8.9088v-82.197l8.9088-2.8072v37.439c5.6923-4.1425 11.911-6.2186 18.666-6.2186 4.7176 0 8.5385 1.5888 11.463 4.7566 2.9339 3.1678 4.3959 7.1154 4.3959 11.833z"/><path d="m380.88 58.362c0-5.5948-1.0624-10.215-3.1776-13.87-2.5147-4.4544-6.4233-6.8035-11.706-7.0472-9.7666.56534-14.64 7.5638-14.64 20.976 0 6.1504 1.0137 11.287 3.0606 15.41 2.6122 5.2537 6.5306 7.8464 11.755 7.7587 9.8056-.07798 14.708-7.8172 14.708-23.227zm9.7568.05848c0 7.9634-2.0371 14.591-6.1017 19.884-4.4739 5.9262-10.654 8.8991-18.539 8.8991-7.8172 0-13.909-2.9729-18.305-8.8991-3.9866-5.2927-5.975-11.921-5.975-19.884 0-7.4858 2.1541-13.782 6.4623-18.909 4.5519-5.4389 10.537-8.1681 17.935-8.1681s13.422 2.7292 18.061 8.1681c4.3082 5.127 6.4623 11.424 6.4623 18.909z"/><path d="m441.71 86.103h-8.9088v-36.337c0-3.9866-1.1989-7.0959-3.5967-9.3377-2.3978-2.2321-5.5948-3.314-9.5814-3.2263-4.2302.07798-8.2558 1.4621-12.077 4.1425v44.759h-8.9088v-45.86c5.127-3.7331 9.8446-6.1699 14.153-7.3103 4.0646-1.0624 7.6515-1.5888 10.741-1.5888 2.1151 0 4.1035.20469 5.975.61406 3.4992.80901 6.3454 2.3101 8.5384 4.5129 2.4465 2.4368 3.6649 5.3609 3.6649 8.7821z"/></g><path d="m56.019 4.2346c-4.5837 0.021298-8.9609 0.41222-12.812 1.0938-11.346 2.0045-13.406 6.2001-13.406 13.937v10.219h26.812v3.4062h-36.875c-7.7925 0-14.616 4.6837-16.75 13.594-2.4618 10.213-2.571 16.586 0 27.25 1.9059 7.9379 6.4575 13.594 14.25 13.594h9.2188v-12.25c0-8.8499 7.6571-16.656 16.75-16.656h26.781c7.455 0 13.406-6.1382 13.406-13.625v-25.531c0-7.2663-6.13-12.725-13.406-13.937-4.606-0.76673-9.3851-1.115-13.969-1.0938zm-14.5 8.2187c2.7695 0 5.0312 2.2986 5.0312 5.125-2e-6 2.8163-2.2617 5.0938-5.0312 5.0938-2.7795-1e-6 -5.0312-2.2774-5.0312-5.0938-1e-6 -2.8264 2.2518-5.125 5.0312-5.125z" fill="url(#b)"/><path d="m86.737 32.891v11.906c0 9.2308-7.8259 17-16.75 17h-26.781c-7.3358 0-13.406 6.2785-13.406 13.625v25.531c0 7.2663 6.3186 11.54 13.406 13.625 8.4873 2.4956 16.626 2.9466 26.781 0 6.7502-1.9544 13.406-5.8876 13.406-13.625v-10.219h-26.781v-3.4062h40.188c7.7925 0 10.696-5.4354 13.406-13.594 2.7993-8.3989 2.6802-16.476 0-27.25-1.9258-7.7574-5.6039-13.594-13.406-13.594zm-15.062 64.656c2.7795 3e-6 5.0312 2.2774 5.0312 5.0938-2e-6 2.8264-2.2518 5.125-5.0312 5.125-2.7696 0-5.0312-2.2986-5.0312-5.125 2e-6 -2.8163 2.2617-5.0938 5.0312-5.0938z" fill="url(#a)"/><path d="m459.06 24.746h1.562v-9.7962h3.7001v-1.1677h-8.9622v1.1677h3.7001zm6.647 0h1.3345v-8.947l2.8964 8.9459h1.4857l3.0182-8.9156v8.9167h1.4558v-10.964h-1.9259l-3.2983 9.3929-2.813-9.3929h-2.1534z" fill="#646464"/><ellipse cx="56.916" cy="131.93" rx="35.931" ry="6.9673" fill="url(#c)" opacity=".44382"/></svg>
