<svg height="60.694pt" viewBox="0 0 80.921 80.925" width="60.691pt" xmlns="http://www.w3.org/2000/svg"><path d="m40.209 1.3336c-21.493.13614-38.876 17.606-38.876 39.128 0 21.609 17.518 39.131 39.128 39.131s39.128-17.522 39.128-39.131c0-21.606-17.517-39.128-39.128-39.128-.0844 0-.16818-.000535-.25226 0z" fill="#d6bdbd"/><g fill="#b6242a" stroke-width="1.3333"><path d="m45.784 43.048v7.7091c.0073 2.2932-2.2838 4.1228-4.4028 4.4199-1.2117.17006-2.5275.01607-3.5997-.59416-1.0198-.58898-2.1252-1.7244-2.5047-2.835-.19754-.60142-.17058-1.0457-.18043-1.6233l-.0057-8.0902c-1.2656-3.7698-7.6842-5.0219-11.176-5.4429v13.221c.03889 1.0509 1.0649 2.8334 2.2211 3.8641 3.0097 2.6717 10.473 3.7905 14.379 3.7905 4.0798 0 11.48-.91095 14.604-3.8009 1.0867-1.0001 1.8623-2.429 1.8914-3.9393v-13.13c-1.8063.22605-4.8285.97264-7.1735 2.0148-1.8535.81762-4.0523 2.1884-4.0523 4.436"/><path d="m23.922 32.448v2.6862c2.1693.14724 4.3442.67971 6.2724 1.5087 2.0448.89176 3.7734 2.2429 4.912 4.0114 0-.1908 0-.53298.0073-.72793-2.2341-4.3577-7.9113-7.0771-11.192-7.4784"/><path d="m35.107 38.728v-.84199c-.5672-1.4849-2.2719-3.9378-4.4879-5.7114-2.2149-1.7711-4.7315-2.7354-6.71-3.103v2.1117c1.8349.19754 4.1415.97783 6.1755 2.2885 2.2289 1.4305 4.1156 3.4571 5.0224 5.2562"/><path d="m40.463 36.328c3.5541 0 6.4508-2.8905 6.4508-6.4383 0-3.5432-2.8967-6.4368-6.4508-6.4368-3.5525 0-6.4487 2.8936-6.4487 6.4368 0 3.5479 2.8962 6.4383 6.4487 6.4383"/><path d="m50.732 36.754c1.9277-.8394 4.1026-1.3693 6.2662-1.5165v-2.6825c-3.2741.39766-8.9508 3.1186-11.192 7.4737.0062.19857.0062.54335.0062.73622 1.1458-1.7752 2.8733-3.13 4.9192-4.0109"/><path d="m50.302 32.288c-2.2159 1.7711-3.9191 4.225-4.4884 5.7083 0 .20946.0047.63564.0047.8451.90317-1.8006 2.7888-3.8263 5.0172-5.2619 2.035-1.3096 4.3401-2.0967 6.176-2.2864v-2.1143c-1.9785.36967-4.4951 1.3397-6.7095 3.1092"/><path d="m40.461 62.514c-12.54 0-22.706-9.8752-22.706-22.057 0-12.181 10.167-22.055 22.706-22.055 12.542 0 22.708 9.8737 22.708 22.055 0 12.181-10.166 22.057-22.708 22.057m23.353-22.057c0-12.525-10.458-22.679-23.353-22.679-12.896 0-23.353 10.155-23.353 22.679 0 12.526 10.457 22.679 23.353 22.679 12.895 0 23.353-10.154 23.353-22.679"/><path d="m14.251 47.088-2.2133.46558-.43033-2.0459 2.2128-.4661-.16435-.7834-5.1655 1.0877.16539.78392 2.2553-.47543.43136 2.0454-2.2569.47492.16539.78392 5.1655-1.0867z"/><path d="m13.673 54.021.64912-.28982-.8928-2.0023 1.3734-.61283 1.0478 2.3476.69008-.30693-1.3734-3.0802-4.8186 2.1496 1.3734 3.0792.69008-.30745-1.0473-2.3487 1.4144-.63149z"/><path d="m16.141 56.861 1.2697-.8985 1.4854 2.0988.61646-.43603-1.9479-2.752-4.3064 3.047.46299.65327 1.8385-1.3003 1.2671 1.7887.58016-.41011z"/><path d="m20.821 60.101 1.8634 1.7711.52158-.54698-2.4435-2.3243-3.6355 3.8242 2.443 2.3222.52158-.54646-1.8639-1.7721 1.0665-1.123 1.5901 1.5129.49047-.51639-1.5901-1.5108z"/><path d="m21.904 66.887.66104.45158 2.9817-4.3541-.66053-.45262z"/><path d="m32.133 69.728c-.2022.62734-.72482.94102-1.3672.73415-.64134-.20583-.88243-.76526-.67971-1.3931l1.0426-3.2404-.76163-.24472-1.0712 3.3244c-.32923 1.0229.21568 1.993 1.2251 2.3165 1.0084.3256 2.0168-.14413 2.3466-1.1666l1.0706-3.3239-.76215-.24627z"/><path d="m38.927 71.195-1.9951-3.9372-.82696-.07259-.45573 5.2588.7974.06896.32404-3.7366 1.9945 3.9383.82747.07103.45573-5.2567-.79792-.07051z"/><path d="m42.444 67.394.46092 5.2567.79688-.06896-.45988-5.2573z"/><path d="m48.106 70.524-2.1667-3.5966-.81918.20842 2.9148 4.7072.74711-.1908.31989-5.5263-.81918.2079z"/><path d="m53.459 69.19-.67142-1.3968 1.9774-.95294-.30797-.64082-1.978.95139-.65327-1.3568 2.3186-1.1147-.32767-.6823-3.0398 1.4631 2.2885 4.758 3.0403-1.4631-.32819-.68127z"/><path d="m58.499 63.567-.95813.73415-.9742-1.2697.9939-.76266c.39455-.30123.82073-.32975 1.1411.0871.31989.41892.20376.89902-.20272 1.2111m.80259-1.67c-.55891-.72896-1.4797-.72326-2.1677-.19754l-1.6358 1.2531 3.2103 4.1887.63512-.48684-1.3703-1.7882.8114-.62216 2.2356 1.1256.75281-.57757-2.3948-1.1152c.36967-.56357.33337-1.2448-.07673-1.7799"/><path d="m64.989 59.154c-.67919-.58639-1.446-.44381-2.0936.10266-.37018.31678-.93687.96383-1.4481.52365-.38781-.33389-.30641-.80259.0016-1.1614.3059-.35256.7243-.59002 1.1608-.72171l-.20998-.76785c-.58172.16435-1.1313.47284-1.5321.93946-.62423.7243-.72378 1.6467.04666 2.3082.66208.57083 1.3983.43136 2.0371-.09436.42462-.35878.92546-1.0302 1.5155-.52417.42151.36344.17472.92287-.12547 1.2713-.35256.40959-.84666.68801-1.375.79118l.11147.78911c.74452-.1011 1.3776-.48528 1.8654-1.052.63823-.74244.87154-1.6954.04563-2.4041"/><path d="m63.292 54.874 4.5039 2.7536.4184-.68178-4.5044-2.7551z"/><path d="m66.748 49.421-.6569-.27323-1.4201 3.4074.65638.27375.55632-1.334 4.2151 1.756.30745-.7383-4.2146-1.7571z"/><path d="m69.976 46.394-2.7064-2.1983-.1768.82488 2.0573 1.5839-2.5239.60557-.17576.82592 3.3674-.90213 2.1242.4521.1571-.73882z"/><path d="m10.663 42.608c.63823 0 1.1624-.52262 1.1624-1.1634 0-.64031-.52417-1.1593-1.1624-1.1593-.64394 0-1.1702.51898-1.1702 1.1593 0 .64082.52624 1.1634 1.1702 1.1634"/><path d="m70.169 42.608c.64186 0 1.1655-.52054 1.1655-1.164 0-.6429-.52365-1.1603-1.1655-1.1603-.64342 0-1.1624.51743-1.1624 1.1603 0 .64342.51898 1.164 1.1624 1.164"/><path d="m40.461 77.073c-20.22 0-36.612-16.39-36.612-36.612 0-20.219 16.392-36.613 36.612-36.613 20.221 0 36.614 16.394 36.614 36.613 0 20.222-16.393 36.612-36.614 36.612m0-74.405c-20.872 0-37.794 16.924-37.794 37.794 0 20.872 16.922 37.795 37.794 37.795 20.873 0 37.794-16.923 37.794-37.795 0-20.869-16.921-37.794-37.794-37.794"/><path d="m66.223869 23.701457c.07362-.0197.05651-.02748.164354.01089.233829.08503 1.157737.531429 1.210621.693709.01763.05496.01555.07829-.01037.101619-.11147.09851-.192351.201165-.333893.197536-.07051-.0021-.05288-.01089-.09125-.06273-.137912-.184575-.9265-.695265-1.0416-.731039-.04822-.01503-.05962-.03059-.06429-.0617-.01659-.105249.07777-.124433.166428-.148282m3.255973-.308488c.146208.06688.279972.200647.342707.373296.03214.08814.03733.08918.114581.141023.265974.177316.227607.611792.281528.910429.0073.04148-.0337.07829-.0757.08814-.368111.08658-.443289-.480619-.667785-.627864-.0477-.03163-.195981.0073-.244717-.0617-.262344-.282565-.0617-.549057.129617-.784959.0477-.05859.0534-.06896.119766-.03837m.286712 1.939585c-.215682.114063-.339596.01141-.492543-.02177-.185612-.0394-.151911.0062-.258197-.08192-.106286-.08969-.239013-.123395-.4127-.05807-.09021.03422-.101101.03214-.150874-.0031-.247308-.176279-.412181-.468694-.256641-.731557.06533-.110434.08347-.115618.20635-.114581.183537.0026.369667.0591.573943.05185.121321-.0036.114581-.02022.248864.09695.261308.227607.579646.51069.541798.86221m-4.307942-1.523774c.05755.03318.423069.234347.87258.604532.512245.422551 1.119888 1.036934 1.253653 1.373419.147763.164873.266492.371223.361372.549575.399738.395072.611272.975237.981458 1.555402.05911.09799-.01452.179389-.09903.222422-.447955-.03785-.866876-.351521-1.21736-.610754-.04614-.0337-.04614-.09488-.08814-.133246-.131172-.119248-.343743-.160207-.461435-.281528-.04977-.05133-.05185-.110952-.06948-.02385-.07258.365.406997.887097.634085 1.124555.443808.46662 1.082041 1.089299 1.66739 1.217879.230718.05029.396628-.02126.610236-.03111.06947-.06222.07777-.117174.07777-.171613.000519-.06222.01192-.103693-.0062-.161243-.15243-.488396-.362927-.878802-.59883-1.410749-.03577-.08088-.07466-.103693-.01141-.161243.161762-.148282.34841-.108878.509134-.06066.40596.122358.844065.38211 1.32935.322487.139468-.01659.102656-.02333.227088.02229.249383.09229.589498-.12184.816586-.31471.04666-.03111.160206-.222422.127543-.256122-.06274-.613865-.39248-.886061-.738297-1.320536-.0254-.0394-.10162.04096-.117692-.02022.06014-.08918-.108878-.246272-.186648-.237458-.03526.0041-.02178.02644-.01348.05185.08347.264936.366037.613865.420995.927019.01815.103693.01555.11147-.03785.196499-.07881.127543-.177834.248345-.349966.345817-.0814.04563-.08555.04926-.177834.04614-.10473-.0047-.207905-.01504-.323523.0052-.08036.01452-.06636.02489-.144134-.02022-.100064-.05807-.170057-.131172-.291378-.167983-.210498-.06481-.548539.02281-.680748-.184056-.103175-.161243.0088-.313154.02074-.429809.01866-.181982-.09643-.373296-.05236-.471287.18924-.41581.762665-.34478 1.174328-.511208.05962-.02437.06947-.04925.124432-.000519.04251.03785.0757.09851.125469.122359.05029.0254.06377.01607.04874-.03422-.04718-.157096-.262863-.27064-.333893-.467139-.0814-.225015.04977-.563055.361371-.635122.486323-.112507.699931.626308 1.28528.378481.08244-.225533-.137912-.248346-.321968-.347892-.255604-.13843-.414255-.288786-.624753-.35826.01244-.256123.389369-.24368.58172-.389369.125988-.09488.127543-.207905.248865-.286194-.03992-.152429-.133246-.108359-.102657-.225533-.197536-.06533-.478545-.03214-.785477.06222-.127025.03837-.269085.01193-.383148.05081-.233828.07881-.43966.250938-.702004.245753-.106286-.0021-.334411-.06999-.434994-.122358-.282564-.147245-.257159-.425143-.0057-.665193.100583-.09695.287231-.145689.448474-.225533.07207-.03526.07103-.02748.101101-.09643.05496-.122358.129617-.232274.151393-.362409.01089-.06481.01918-.08244-.03681-.116655-.137393-.08347-.597792.222423-.75748.299156-.372259.178352-1.069597.698893-1.354236.419958.17576-.214645.506024-.360335.673489-.604014.02385-.03577-.01037-.09695.01141-.153466.04925-.130136.129617-.114582.09177-.215164-.06896-.181982-.586905-.124432-.733631-.0617-.06636.02903-.635641.47025-.795847.577054-.01348.0088-.02696.01815-.03992.02748-.05859.04251-.235902.15554-.250938.163835-.133765.07414-.590534.496173-.614902.61231-.01244.05807-.0021.06118.04096.08295.122358.06481.235384.152429.410107.09436.0534-.01763.06014-.02178.09332-.0067.151393.06896.297082.1488.438105.246271.07466.05185.06325.06533.07103.121322.01815.133764.136357.253012-.10473.354631-.252494.106286-.704079-.08555-.891764-.285157-.09903-.105248-.04822-.07933-.190277-.15554-.738297-.398701-1.455855-1.208546-2.360062-1.27854-.185093-.014-.586386.110434-.765257.225534-.431883.279972-.36189.927537.04822 1.116259.428772.197536 1.362532.04355 1.816709.306933"/><path d="m63.149279 28.727998c-.385739-.08866-.487877-.0394-.725854-.460399-.04666-.08295-.122358-.177315-.145689-.249382-.18613-.313154-.09592-.740371-.09436-.753851-.02333-.100065.09851-.154504.07258-.255605.425143-.434475.944647.111989 1.177439.597274.109396.228644.05133.139986.227607.310044.251975.242642.429291.65275.07725.914575-.191833.06222-.371741-.05185-.588979-.102656m2.549821 2.34036c.289823.246791.365519.02903.359298.0021-.01815-.279454-.209461-.583275-.310562-.851841-.214646-.571869-.201684-.837325-.632012-1.425785-.08244-.129098-.335448-.817622.220867-1.334534.453659-.261307.960201.484248 1.303427-.174723-.02696-.415811-.175761-.538687-.379518-.890208-.03007-.02903-.103175-.378481-.152948-.573425-.0954-.370704-.506024-.72015-.87932-.440178-.09177.06947-.129098.248864-.121321.327671.01815.179908.297081.351002.328708.542835.02333.138431-.07414.234866-.125469.378481-.423069.235902-.893319-.274788-1.037453.0062-.133246.257678.318857.731038-.15554.87258-.08088-.03733-.204276-.03474-.277898-.08658-.0041-.113026-.117174-.160725-.174724-.239014-.02229-.02955-.147763-.149318-.19287-.183537-.07051-.05548-.171612-.163836-.239531-.21983-.227089-.119766-.846657-.763184-1.090336-.948276-.569796-.244717-.372778.38211-.461955.748148-.03318.139467-.136875 1.1904-.01141 1.638874-.06896.310043-.124432.732075.05911.961756.0254.03214.09177.04251.14569.08244.167983.121839.329745.252493.546464.245234.150874-.0052.172649.0197.289823.04044.25353.04666.526762.04407.746592.07777.282047.04251.14206.08192.428254-.0052.423588-.128061.526244 0 .878283.0394.22346 0 .480619.968496.76785 1.18366.08555.06481.08762.156059.168502.225533"/><path d="m52.01 12.368c1.6643-1.6358 1.1137-2.5467.85495-2.9496-.2722-.42151-.55424-.65534-.5335-.79014.028-.18509.32197-.22346.32197-.22346 1.6451.12132 1.8665 1.4631 1.8665 1.4631.0337.9068-1.1624 2.5649-1.1624 2.5649.11769.0954.52002.11873.52002.11873.71963.09021.85495-.20324.85495-.20324.39663-.22398.78029.0062 1.1583.43862.33908.38315.58379.47336.77355.56876.07259.03681.17058.07777.24109.14413.11666.10888-.06222.44899-.25872.3593-.23176-.07414-.70512-.21102-.79222-.23383-1.306-.36293-2.7577-.3536-3.3223-.42877-.34685.37122-.81555.75385-1.4559 1.1536 2.2066 1.1826 3.9077 3.4131 3.6739 4.8352-.01037.06273-.08036.17472-.28775.11406-.26234-.07725-.51328-.29397-.79066-.70252-.54958-.67712-1.2666-1.3558-1.965-1.7218-.18146-.0814-.04459-.13999-.04459-.13999l.51639.01244c.18094.01089.14776-.02281.09903-.18872-.42203-.96124-.8871-1.4315-1.6518-1.9857-1.166.69734-2.4466 1.433-3.5531 1.3745-.3173-.06896-.64549-.42825-.97212-.76578 0 0-.22657-.25042.19028-.26494 1.8794-.2105 3.3441-.57809 4.9249-1.9525-.56461-.11613-1.2132-.10628-1.627-.17783-.39404-.10784-.6543-.22346-.79118-.49566l-.35982-1.0089c.16384-.15865.34011-.15191.5361.10214.39663.31315.9939.56409 1.8836.72585z"/><path d="m29.824779 13.635042c-.149837.08762-.391443-.08088-.545427-.134801-.208424-.07414-.357224-.07466-.500839-.205313.112507-.503432.462472-1.08256 1.09915-1.23447.08036.1825.09384.406996.0928.634603-.001.190278.03992.83214-.145689.939981m-2.250665 1.101742c-.193389.177835-.609718.384703-.864285.454696-.272195-.578091-.86584-1.470372-.932722-1.522738-.202202-.157614.230718-.320412.380555-.02437.08192.161244.129616.295008.173686.471805.214127-.294489.230718-.869987.593126-.940499.120803.60557.461955 1.151515.64964 1.561104m7.039227-1.657539c-.217757.114582-.582757.34841-.683858.400775-.680748.353595-2.647812.868433-3.124801.699931-.208424-.07362-.37537.000518-.402849-.215682-.01815-.144134.367074-.453659.48684-.591053.346855-.397664.681785-.665193 1.005826-.988717.137913-.137912.270122-.250938.388851-.365519.06999-.06792.228125-.24679.197017-.349447-.201683-.661564-.889171.08658-1.406082.198055-.523134.111989-.920798-.214645-1.145813-.695265.09695-.393516.335967-.805179.708226-1.059747.153467-.105248.170576-.07933.274269.09747.250938.424625.02385 1.00479.04718 1.452227.123914-.02437.238495-.113544.335448-.191314.172131-.139468.277898-.314192.410108-.482175.02074-.03111.110951-.05755.191832-.17265.10162-.14206.184056-.303303.217757-.464546.0394-.191314.02281-.237458.06533-.391961.07207-.2649367.06222-.5941633-.0954-.7585173-.244198-.2550858-.710299-.2395318-1.095002-.1524293-.365001.082436-1.214768 1.0457476-1.5694 1.6767226-.239531.42618-1.005826 2.24911-1.07219 2.412946-.101619.254048-.129098.721187-.380554.898503-.05703-.06533-.651195-1.580288-.674007-1.905366-.0099-.139987-.05496-.228644-.07725-.366038-.111989-.679711-.268566-.991828.03318-1.604137.0254-.05133.430846-.6486026.01089-.5718695-.384184.054439-.784441.032663-.976274.2877492-.09799.1296163-.144652.3007113-.225533.4272163-.272714.429291-.631493 1.027602-1.171217 1.333498-.151392.09229.111989.335448.201684.286712.395072-.136357 1.205954-.628901 1.280095-1.014122.09229.54491.119766 1.124556.318857 1.766418-.136357.0337-.291897.02541-.519504.100583-.333893.110433-.570314.38211-.679192.53765-.363964-.525726-.785996-.950869-.921316-1.039527-.108878-.07103-.218793-.132727-.315746-.164354-.08658-.02852-.380036-.04355-.08036.193907.178872.141542.697339.889171 1.159293 1.599471.374851.576017.683339 1.137517.777182 1.324165.134283.265973.278935.58172.337003.850286.06066.28049.09799.455732.08814.68645-.01193.264937-.0099.515356-.113544.672452-.158133.24005-.560982.309006-.766813.522096-.06636.251975.635122.760591.858063.725335.313154-.04874.393516-.301747.475434-.499283.141542-.34167.28412-1.137517.01607-2.044834.460917-.141542.813993-.201684 1.237062-.324561.169539.323524.218274.387295.335966.792218.05029.106804-.346854.218793-.637195.296563.01452.126506.125469.142579.22294.190277.09643.0477.441734.267011.537132.331819.274788.186649.521578.15917.804143.53454.03059.120284.177315.213608.277379.120803.1151-.106286.289305-.17939.337522-.303822.07362-.193388.09073-.351521-.01452-.520541-.17576-.281527-.447955-.547501-.596237-.776663-.140504-.218275-.850286-1.246914-1.022935-1.525331-.06222-.09955-.152948-.242642-.178353-.371222-.02385-.120284.05029-.370704.180945-.469731.224496-.167983.296045-.01141.485285.10836.171094.108359.353595.156577.501358.22657.205313.09695.282564.180426.55476.296044.291378.122359.623716.211016.929093.268048.461435.08658 1.163958-.0078 1.718199-.212053 2.024096-.74763 2.095126-1.266615 2.110161-1.661169.0016-.03266-.122358-.0871-.170575-.06222"/><path d="m14.618493 28.621334c.05029.247309.134283.513282.327671.870506.145689.189241.32819.412181.357224.36863.02903-.04355-.365001-.857544-.447956-1.265578-.03266-.159169-.164354-.84873-.183018-1.019306-.04511-.410626-.07466-.910947.0041-1.320536.02903-.148281.130654-.580683.208424-.778737.07155-.184056-.141541-.17265-.16902-.164354-.739853.223978-.918205 1.400379-1.116778 2.094607-.03007.103693-.436549 1.547624-.537132 1.827596-.07362.203239-.08607.308488.130654.185093.179908-.102657.357742-.2976.453658-.414255.298637-.362927.531429-.969015.734668-1.356829.02229.28412.149319.709782.237458.973163"/><path d="m15.688 23.488c-.50084.31004-.90369.49721-1.7389.75281-.5278.16072-1.0727.25768-1.5995.42307-.38989.13169-.71704.379-.75696.39352-.03474.01192-.28049.15658-.41426.26338-.03474-.08658-.13169-.25768-.18198-.35515-.05444-.10473-.61231-1.094-1.095-1.305-.45936-.39611-1.2205.34271-1.2744.60712-.016072.07984-.069475.18406-.092806.25872.22864.2219.24057-.02385.34685-.05547.11095-.03266.19339-.1094.32093-.07362.61438.27375.81399.60401 1.0846 1.0722.49047.84873 1.6881 3.0102 2.3367 5.6674.11251.46092.14673 1.0556.06066 1.4828-.04044.14673.07984.24731.15243.11821.8508-1.5103.08244-3.6008-.28101-4.5651-.43914-1.1671-1.0411-2.1304-1.3034-2.6976-.01711-.04407-.03681-.08866.09177-.13584.421-.1545 1.4496-.22761 1.784-.26183.29242-.02955 1.8888-.23331 2.091-.30019.31834-.10629 1.3646-.24731 1.88-1.2168.08555-.13688.14569-.72119.20946-1.053.0757-.39507-.32041-.02022-.44433.07777-.3059.24109-.83992.69475-1.1759.90265"/><path d="m18.987717 27.84802c-.158132.07518-.311599.08607-.425143.228125-.09955.124433-.263381.801551-.432401.762147-.09229-.02126-.113026-.204794-.150874-.313154-.128062-.360335-.586905-1.449634-.734668-1.706794-.1151-.200646-.286194-.378999-.566685-.496691-.144134-.03681-.314709-.0021-.390405.05081-.06585.125987-.248865.247827-.272196.307969-.105767.263381-.0197.480619-.0099.705115.01659.393517-.05651.811401-.123914 1.199215-.08036.466102-.176279.966941-.382629 1.463632-.03629.08866-.254049.04044-.167983.15554.185611.313154 1.694869 1.181587 1.974841 1.236544.461954.09021 1.06182-.209979 1.037971-.73726-.09799-.419958-.894874-.436549-1.257801-.417366-.234347.01244-.499802-.0591-.733112-.07777-.218275-.01815-.466102-.04925-.677118-.145171.09177-.221385.335966-.260789.485803-.496691.218275-.343225.391443-.992346.66986-1.388973.02385-.0337.06688-.160725.142578.0036.163317.357224.392998.702523.500839 1.072708.104731.35515.131691.745037.542835.938944.101101.04822.286712.02489.381073-.03629.03214-.06792-.01555-.15554.0477-.231236.395591-.559944 1.008937-1.368753 1.255209-2.061943.132728-.373297-.627863-.05599-.713929-.01504"/></g></svg>